<svg width="353" height="100" viewBox="0 0 353 100" fill="none" xmlns="http://www.w3.org/2000/svg">
<path fill-rule="evenodd" clip-rule="evenodd" d="M2.01939 0C0.90411 0 0 0.90411 0 2.01939V97.0113C0 98.1266 0.90411 99.0307 2.01939 99.0307H25.6704C38.1397 99.0307 48.4113 96.6626 56.3274 91.7506C64.2146 86.9096 69.937 80.6257 73.3944 72.892L73.398 72.884C76.7939 65.1984 78.4814 56.862 78.4814 47.8998C78.4814 34.9581 74.4963 23.7198 66.5039 14.2884C58.3527 4.56601 44.2524 0 24.895 0H2.01939ZM124.586 51.6198L135.309 73.1457L143.278 51.8135C143.573 51.0241 144.327 50.5008 145.17 50.5008H156.22C156.895 50.5008 157.526 50.8387 157.901 51.4012C158.275 51.9637 158.343 52.6761 158.083 53.2995L139.472 97.7906C139.158 98.5417 138.423 99.0307 137.609 99.0307H135.767C135.022 99.0307 134.336 98.6196 133.986 97.9616L122.585 76.5852L111.184 97.9616C110.833 98.6196 110.148 99.0307 109.402 99.0307H107.561C106.748 99.0307 106.014 98.5433 105.699 97.794L86.9915 53.3029C86.7293 52.6794 86.7967 51.9661 87.1709 51.4028C87.5452 50.8394 88.1766 50.5008 88.853 50.5008H100.097C100.941 50.5008 101.697 51.0263 101.99 51.8181L109.952 73.2892L120.578 51.6307C120.917 50.9391 121.621 50.5008 122.391 50.5008H122.779C123.545 50.5008 124.245 50.9342 124.586 51.6198ZM172.698 96.9188L172.738 96.9411C176.468 98.9821 180.519 100 184.855 100C188.814 100 192.441 99.0409 195.684 97.0951L195.711 97.0781C196.84 96.3758 197.864 95.6237 198.774 94.8189L198.829 97.0611C198.856 98.1567 199.752 99.0307 200.848 99.0307H210.735C211.85 99.0307 212.754 98.1266 212.754 97.0113V52.5202C212.754 51.4049 211.85 50.5008 210.735 50.5008H200.751C199.656 50.5008 198.761 51.3733 198.732 52.4678L198.68 54.4953C196.95 53.0054 194.874 51.794 192.487 50.8391C189.972 49.8333 187.293 49.3376 184.467 49.3376C179.709 49.3376 175.466 50.3748 171.811 52.5244C168.179 54.6612 165.364 57.6607 163.385 61.4775L163.371 61.504C161.462 65.3229 160.541 69.7141 160.541 74.6204C160.541 79.6302 161.607 84.1178 163.806 88.019L163.828 88.057C166.064 91.8308 169.024 94.7988 172.698 96.9188ZM175.63 74.7173C175.63 70.821 176.655 67.8637 178.539 65.6568L178.555 65.6385C180.365 63.4656 182.949 62.294 186.599 62.294C188.625 62.294 190.456 62.8085 192.135 63.8381C193.812 64.8658 195.151 66.3017 196.155 68.1985C197.147 70.0716 197.666 72.2286 197.666 74.7173V75.3958C197.666 79.0826 196.56 81.9068 194.467 84.0579C192.342 86.1793 189.763 87.2375 186.599 87.2375C182.868 87.2375 180.258 86.0864 178.459 83.9914C176.628 81.7188 175.63 78.6863 175.63 74.7173ZM226.955 34.3942V50.5008H221.123C220.007 50.5008 219.103 51.4049 219.103 52.5202V61.0501C219.103 62.1653 220.007 63.0695 221.123 63.0695H226.955V97.0113C226.955 98.1266 227.859 99.0307 228.974 99.0307H239.54C240.655 99.0307 241.559 98.1266 241.559 97.0113V63.0695H249.814C250.929 63.0695 251.834 62.1653 251.834 61.0501V52.5202C251.834 51.4049 250.929 50.5008 249.814 50.5008H241.559V32.0679C241.559 31.456 241.282 30.8772 240.805 30.4939C240.328 30.1106 239.703 29.9641 239.105 30.0957L228.54 32.422C227.614 32.6259 226.955 33.4462 226.955 34.3942ZM269.948 96.9349L269.987 96.9559C273.858 98.997 278.16 100 282.851 100C286.135 100 289.166 99.5554 291.923 98.6363L291.951 98.6265C294.645 97.6837 296.871 96.5949 298.529 95.3136C299.299 94.7187 299.535 93.6593 299.091 92.7937L295.31 85.427C295.039 84.8975 294.547 84.5149 293.967 84.3812C293.387 84.2475 292.778 84.3764 292.302 84.7334C291.534 85.3091 290.3 85.9027 288.475 86.4502L288.456 86.4558C286.78 86.976 285.044 87.2375 283.239 87.2375C279.731 87.2375 277.2 86.1056 275.383 83.9831C273.59 81.815 272.561 78.6212 272.561 74.1357C272.561 70.2869 273.53 67.4352 275.272 65.3708C276.997 63.3991 279.544 62.294 283.239 62.294C286.062 62.294 288.634 63.3883 291.02 65.7736C291.468 66.2224 292.102 66.4341 292.73 66.3452C293.359 66.2562 293.909 65.877 294.216 65.3212L298.868 56.8883C299.32 56.0695 299.15 55.0476 298.458 54.4185C296.772 52.885 294.534 51.7041 291.856 50.8082C289.126 49.8077 285.947 49.3376 282.367 49.3376C277.558 49.3376 273.215 50.336 269.392 52.3889L269.378 52.3965C265.611 54.4579 262.656 57.4175 260.537 61.2325L260.531 61.2439C258.468 65.0142 257.472 69.3653 257.472 74.2326C257.472 79.3728 258.571 83.962 260.84 87.9325L260.847 87.9461C263.092 91.8045 266.131 94.8143 269.948 96.9349ZM308.966 23.748C307.851 23.748 306.947 24.6521 306.947 25.7674V97.0113C306.947 98.1266 307.851 99.0307 308.966 99.0307H319.241C320.356 99.0307 321.26 98.1266 321.26 97.0113V74.9111C321.26 72.1647 321.842 69.9157 322.92 68.0837L322.933 68.0617C324.077 66.0593 325.458 64.621 327.053 63.6614C328.803 62.6473 330.423 62.1971 331.939 62.1971C334.054 62.1971 335.299 62.6856 336.02 63.3305L336.059 63.3642C336.907 64.0848 337.572 65.23 337.9 67.0333L337.911 67.0911C338.321 69.022 338.546 71.8005 338.546 75.4927V97.0113C338.546 98.1266 339.45 99.0307 340.565 99.0307H350.937C352.052 99.0307 352.956 98.1266 352.956 97.0113V75.5897C352.956 70.014 352.532 65.3763 351.638 61.7322C350.706 57.9321 348.838 54.8618 345.972 52.6697C343.028 50.3522 338.999 49.3376 334.168 49.3376C330.202 49.3376 326.641 50.3335 323.562 52.3816C322.668 52.9579 321.841 53.5856 321.083 54.2646L321.161 52.6151L321.163 52.5691L321.163 52.5202V25.7674C321.163 24.6521 320.259 23.748 319.144 23.748H308.966Z" fill="url(#paint0_linear_2_266)"/>
<path d="M50.254 48.091C52.1588 49.1907 52.1588 51.94 50.254 53.0397L28.5347 65.5794C26.6299 66.6791 24.249 65.3045 24.249 63.1051L24.249 38.0257C24.249 35.8263 26.6299 34.4516 28.5347 35.5514L50.254 48.091Z" fill="white"/>
<defs>
<linearGradient id="paint0_linear_2_266" x1="-1.31487e-06" y1="50" x2="353" y2="50" gradientUnits="userSpaceOnUse">
<stop stop-color="#694FC4"/>
<stop offset="1" stop-color="#C54A7F"/>
</linearGradient>
</defs>
</svg>
