<svg width="195" height="55" viewBox="0 0 195 55" fill="none" xmlns="http://www.w3.org/2000/svg">
<path fill-rule="evenodd" clip-rule="evenodd" d="M1.11066 0C0.49726 0 0 0.49726 0 1.11066V53.3562C0 53.9696 0.49726 54.4669 1.11066 54.4669H14.1187C20.9768 54.4669 26.6262 53.1644 30.9801 50.4628C35.318 47.8003 38.4654 44.3441 40.3669 40.0906L40.3689 40.0862C42.2367 35.8591 43.1648 31.2741 43.1648 26.3449C43.1648 19.227 40.973 13.0459 36.5771 7.85863C32.094 2.51131 24.3388 0 13.6922 0H1.11066ZM68.5224 28.3909L74.4197 40.2301L78.8029 28.4974C78.9651 28.0632 79.3798 27.7754 79.8433 27.7754H85.9208C86.2925 27.7754 86.6395 27.9613 86.8454 28.2707C87.0513 28.58 87.0889 28.9719 86.9455 29.3147L76.7096 53.7848C76.5368 54.1979 76.1328 54.4669 75.685 54.4669H74.672C74.2619 54.4669 73.8851 54.2408 73.692 53.8789L67.4216 42.1219L61.1512 53.8789C60.9582 54.2408 60.5814 54.4669 60.1712 54.4669H59.1583C58.7113 54.4669 58.3078 54.1988 58.1345 53.7867L47.8453 29.3166C47.7011 28.9737 47.7382 28.5814 47.944 28.2715C48.1499 27.9617 48.4971 27.7754 48.8691 27.7754H55.0533C55.5178 27.7754 55.9332 28.0645 56.0947 28.5L60.4733 40.3091L66.3179 28.3969C66.5045 28.0165 66.8913 27.7754 67.315 27.7754H67.5283C67.9496 27.7754 68.3346 28.0138 68.5224 28.3909ZM94.9841 53.3053L95.006 53.3176C97.0576 54.4402 99.2852 55 101.67 55C103.848 55 105.842 54.4725 107.626 53.4023L107.641 53.3929C108.262 53.0067 108.825 52.593 109.326 52.1504L109.356 53.3836C109.371 53.9862 109.864 54.4669 110.466 54.4669H115.904C116.518 54.4669 117.015 53.9696 117.015 53.3562V28.8861C117.015 28.2727 116.518 27.7754 115.904 27.7754H110.413C109.811 27.7754 109.319 28.2553 109.303 28.8573L109.274 29.9724C108.322 29.153 107.181 28.4867 105.868 27.9615C104.485 27.4083 103.011 27.1357 101.457 27.1357C98.8397 27.1357 96.5061 27.7061 94.4962 28.8884C92.4983 30.0637 90.9502 31.7134 89.8617 33.8126L89.8543 33.8272C88.8041 35.9276 88.2977 38.3427 88.2977 41.0412C88.2977 43.7966 88.8841 46.2648 90.0934 48.4104L90.1055 48.4313C91.3355 50.5069 92.9631 52.1393 94.9841 53.3053ZM96.5965 41.0945C96.5965 38.9515 97.1604 37.325 98.1965 36.1113L98.205 36.1012C99.2009 34.9061 100.622 34.2617 102.63 34.2617C103.744 34.2617 104.751 34.5447 105.674 35.1109C106.597 35.6762 107.333 36.4659 107.886 37.5092C108.431 38.5394 108.716 39.7257 108.716 41.0945V41.4677C108.716 43.4954 108.108 45.0488 106.957 46.2318C105.788 47.3986 104.369 47.9806 102.63 47.9806C100.578 47.9806 99.1418 47.3475 98.1525 46.1953C97.1455 44.9453 96.5965 43.2774 96.5965 41.0945ZM124.825 18.9168V27.7754H121.618C121.004 27.7754 120.507 28.2727 120.507 28.8861V33.5775C120.507 34.1909 121.004 34.6882 121.618 34.6882H124.825V53.3562C124.825 53.9696 125.322 54.4669 125.936 54.4669H131.747C132.36 54.4669 132.857 53.9696 132.857 53.3562V34.6882H137.398C138.011 34.6882 138.508 34.1909 138.508 33.5775V28.8861C138.508 28.2727 138.011 27.7754 137.398 27.7754H132.857V17.6373C132.857 17.3008 132.705 16.9824 132.443 16.7716C132.18 16.5608 131.837 16.4803 131.508 16.5526L125.697 17.8321C125.188 17.9442 124.825 18.3954 124.825 18.9168ZM148.472 53.3142L148.493 53.3257C150.622 54.4483 152.988 55 155.568 55C157.374 55 159.041 54.7555 160.558 54.25L160.573 54.2446C162.055 53.726 163.279 53.1272 164.191 52.4225C164.614 52.0953 164.744 51.5126 164.5 51.0365L162.421 46.9848C162.271 46.6936 162.001 46.4832 161.682 46.4096C161.363 46.3361 161.028 46.407 160.766 46.6034C160.344 46.92 159.665 47.2465 158.661 47.5476L158.651 47.5507C157.729 47.8368 156.774 47.9806 155.781 47.9806C153.852 47.9806 152.46 47.3581 151.46 46.1907C150.474 44.9982 149.908 43.2417 149.908 40.7746C149.908 38.6578 150.442 37.0893 151.399 35.9539C152.348 34.8695 153.749 34.2617 155.781 34.2617C157.334 34.2617 158.749 34.8636 160.061 36.1755C160.308 36.4223 160.656 36.5388 161.002 36.4898C161.347 36.4409 161.65 36.2323 161.819 35.9267L164.378 31.2886C164.626 30.8382 164.533 30.2762 164.152 29.9302C163.224 29.0868 161.994 28.4373 160.521 27.9445C159.019 27.3942 157.271 27.1357 155.302 27.1357C152.657 27.1357 150.268 27.6848 148.166 28.8139L148.158 28.8181C146.086 29.9518 144.461 31.5796 143.295 33.6779L143.292 33.6842C142.157 35.7578 141.609 38.1509 141.609 40.8279C141.609 43.655 142.214 46.1791 143.462 48.3629L143.466 48.3703C144.701 50.4925 146.372 52.1478 148.472 53.3142ZM169.931 13.0614C169.318 13.0614 168.821 13.5587 168.821 14.1721V53.3562C168.821 53.9696 169.318 54.4669 169.931 54.4669H175.582C176.196 54.4669 176.693 53.9696 176.693 53.3562V41.2011C176.693 39.6906 177.013 38.4536 177.606 37.446L177.613 37.4339C178.242 36.3326 179.002 35.5416 179.879 35.0138C180.842 34.456 181.733 34.2084 182.566 34.2084C183.729 34.2084 184.415 34.4771 184.811 34.8317L184.832 34.8503C185.299 35.2466 185.665 35.8765 185.845 36.8683L185.851 36.9001C186.077 37.9621 186.2 39.4903 186.2 41.521V53.3562C186.2 53.9696 186.698 54.4669 187.311 54.4669H193.015C193.629 54.4669 194.126 53.9696 194.126 53.3562V41.5743C194.126 38.5077 193.893 35.957 193.401 33.9527C192.888 31.8627 191.861 30.174 190.284 28.9683C188.665 27.6937 186.449 27.1357 183.792 27.1357C181.611 27.1357 179.652 27.6834 177.959 28.8099C177.467 29.1269 177.012 29.4721 176.596 29.8456L176.639 28.9383L176.639 28.913L176.64 28.8861V14.1721C176.64 13.5587 176.142 13.0614 175.529 13.0614H169.931Z" fill="url(#paint0_linear_2_256)"/>
<path d="M27.6397 26.4505C28.6873 27.0554 28.6873 28.5675 27.6397 29.1723L15.694 36.0691C14.6464 36.674 13.3369 35.9179 13.3369 34.7082L13.3369 20.9146C13.3369 19.7049 14.6464 18.9489 15.694 19.5537L27.6397 26.4505Z" fill="white"/>
<defs>
<linearGradient id="paint0_linear_2_256" x1="-7.64295e-07" y1="27" x2="194" y2="27" gradientUnits="userSpaceOnUse">
<stop stop-color="#694FC4"/>
<stop offset="1" stop-color="#C54A7F"/>
</linearGradient>
</defs>
</svg>
