<svg width="25" height="25" viewBox="0 0 25 25" fill="none" xmlns="http://www.w3.org/2000/svg">
<path d="M24.9614 23.3065L17.8168 16.1412C18.1598 15.707 18.4657 15.2424 18.7334 14.7537C18.7419 14.7382 18.7487 14.722 18.7572 14.7063C18.8762 14.4863 18.9889 14.2624 19.0915 14.0325C19.1367 13.9315 19.1734 13.827 19.215 13.7245C19.2759 13.5749 19.3397 13.4269 19.3934 13.2736C19.4315 13.1646 19.4608 13.0525 19.4952 12.9421C19.5434 12.7877 19.5944 12.6348 19.635 12.4772C19.652 12.4111 19.663 12.3432 19.6786 12.2766C19.8524 11.5418 19.9515 10.7783 19.9527 9.9909C19.9546 8.65107 19.6906 7.37339 19.2136 6.20554C19.208 6.19202 19.2032 6.17831 19.1976 6.16479C19.1427 6.03218 19.0845 5.90156 19.0242 5.77212C19.0161 5.75474 19.0088 5.73716 19.0007 5.71993C18.9376 5.58638 18.871 5.45482 18.8021 5.32454C18.796 5.31276 18.7904 5.30057 18.784 5.28879C17.1087 2.14656 13.8018 0.00565443 9.9909 9.522e-06C9.18021 -0.00112936 8.39378 0.0999342 7.63875 0.28176C7.59255 0.292752 7.54541 0.299932 7.49941 0.311569C7.33225 0.35445 7.16973 0.407978 7.00603 0.459227C6.90531 0.490522 6.80311 0.516617 6.70358 0.551229C6.53869 0.608619 6.37905 0.676457 6.21847 0.742166C6.12745 0.779303 6.03471 0.811192 5.94484 0.851202C5.18669 1.18742 4.478 1.6149 3.83429 2.122C3.20329 2.61192 2.63162 3.17779 2.13591 3.8076C1.79251 4.24324 1.48635 4.70915 1.21852 5.19907C1.21584 5.20392 1.21366 5.20892 1.21119 5.21377C1.08557 5.44452 0.967864 5.68012 0.860413 5.92151C0.820403 6.01119 0.788316 6.10373 0.75103 6.19435C0.684727 6.35573 0.616493 6.51596 0.558559 6.6814C0.524343 6.77954 0.498248 6.88026 0.467151 6.97939C0.41496 7.14482 0.360888 7.30887 0.317165 7.47782C0.302458 7.53502 0.293199 7.59359 0.279483 7.65118C0.102064 8.39349 0.00119893 9.16575 1.0532e-05 9.96198C-0.00791214 15.4727 4.45503 19.9448 9.96198 19.9527C10.7932 19.9539 11.5989 19.8495 12.3708 19.6587C12.3961 19.6523 12.422 19.6487 12.4471 19.6423C12.6336 19.5946 12.8153 19.5359 12.9974 19.4778C13.0793 19.4518 13.1628 19.4307 13.2439 19.4025C13.4101 19.3449 13.5713 19.2765 13.7333 19.2104C13.8247 19.1731 13.9179 19.1408 14.0081 19.1008C14.1986 19.0162 14.3834 18.9209 14.5677 18.8248C14.6242 18.7953 14.6823 18.7703 14.7384 18.7398C15.2238 18.4744 15.6857 18.1706 16.1184 17.8307L23.2669 25L24.9614 23.3065ZM17.4587 9.98728C17.4563 11.6194 16.9313 13.1269 16.0357 14.3548C15.5676 15.0086 14.9963 15.5783 14.3412 16.0483C13.1107 16.9404 11.5977 17.461 9.96559 17.4587C5.83932 17.4527 2.48822 14.0917 2.49422 9.96564C2.49654 8.33337 3.02162 6.82173 3.91703 5.59396C4.38491 4.9442 4.96039 4.3704 5.61169 3.90445C6.84198 3.01241 8.35521 2.49194 9.98728 2.49426C14.1134 2.50021 17.4646 5.861 17.4587 9.98728Z" fill="white"/>
</svg>
