<svg width="30" height="30" viewBox="0 0 30 30" fill="none" xmlns="http://www.w3.org/2000/svg">
<path d="M27.7337 0H1.93296C1.04931 0 0.333313 0.740449 0.333313 1.65457V28.3406C0.333313 29.2593 1.04931 30 1.93296 30H14.3757V19.9779H10.1653H10.1615V14.9295H14.3757V11.2031C14.3757 10.3944 14.4651 9.6549 14.6346 8.98682C14.6399 8.96666 14.6467 8.94814 14.6521 8.92822C14.7016 8.73984 14.7571 8.55674 14.8193 8.38002C14.8687 8.24133 14.9253 8.10855 14.9824 7.97654C15.0061 7.92135 15.0269 7.86346 15.0518 7.80949C15.1346 7.6323 15.2246 7.4618 15.3216 7.29773C15.3262 7.28971 15.3302 7.28121 15.335 7.27324C15.5397 6.92971 15.7758 6.61617 16.0404 6.33234C16.0466 6.32566 16.0523 6.31816 16.0586 6.31154C16.1725 6.19066 16.2944 6.07828 16.419 5.96889C16.4468 5.94439 16.4728 5.91762 16.5011 5.89377C16.5993 5.81092 16.7047 5.73609 16.8091 5.66033C16.8713 5.61545 16.9308 5.5674 16.9949 5.52527C17.0626 5.48039 17.1352 5.44195 17.2054 5.39982C17.3145 5.33502 17.422 5.26846 17.5363 5.21103C17.556 5.20072 17.5775 5.19293 17.5974 5.18285C18.479 4.75166 19.5092 4.52807 20.6513 4.52807C22.4369 4.52807 23.9728 4.66881 24.4169 4.72969V9.24369H21.8342C19.8086 9.24369 19.4144 10.2421 19.4144 11.7046V14.9296H23.7449L24.2491 14.9307L23.6194 19.978H19.4362H19.4234H19.4144V30H27.7336C28.6173 30 29.3333 29.2593 29.3333 28.3406V1.65457C29.3333 0.740449 28.6173 0 27.7337 0Z" fill="white"/>
</svg>
