<svg width="29" height="22" viewBox="0 0 29 22" fill="none" xmlns="http://www.w3.org/2000/svg">
<path d="M27.5506 2.61113C27.2809 1.87427 26.4366 1.13003 25.7242 0.977106C17.9757 -0.323175 11.0463 -0.326925 3.27591 0.977106C2.56354 1.13003 1.7192 1.87427 1.44948 2.61113C-0.483329 7.79268 -0.482989 13.507 1.44948 18.6885C1.7192 19.4254 2.5636 20.1696 3.27591 20.3225C11.0463 21.6266 17.9757 21.623 25.7242 20.3228C26.4366 20.1696 27.2808 19.4254 27.5506 18.6885C29.483 13.5068 29.4832 7.79268 27.5506 2.61113ZM19.0226 11.1521C16.5245 12.6268 15.2464 13.408 12.8323 14.8691C12.4646 15.0944 11.9954 14.8049 11.9853 14.3522C11.9194 11.3904 11.9194 9.90933 11.9853 6.94737C11.9954 6.4948 12.4646 6.2053 12.8323 6.42666C15.2464 7.88918 16.5245 8.67133 19.0226 10.1476C19.403 10.3711 19.403 10.9285 19.0226 11.1521Z" fill="white"/>
</svg>
