<svg width="29" height="30" viewBox="0 0 29 30" fill="none" xmlns="http://www.w3.org/2000/svg">
<path d="M14.5 0C6.48886 0 0 6.71725 0 15C0 23.283 6.48886 30 14.5 30C22.5069 30 29 23.283 29 15C29 6.71725 22.5069 0 14.5 0ZM14.8306 13.0495C14.8336 13.0497 14.8368 13.0499 14.8398 13.0501C14.7856 12.8157 14.7584 12.572 14.7584 12.3189C14.7584 10.5469 16.1494 9.10787 17.8624 9.10787C18.7549 9.10787 19.5616 9.49699 20.128 10.125C20.7076 10.0058 21.2573 9.80092 21.767 9.52811C21.8773 9.47133 21.9874 9.41478 22.0952 9.35186C21.9102 9.94559 21.5565 10.4594 21.1004 10.8444C20.9839 10.9396 20.8653 11.033 20.7343 11.1094C20.74 11.109 20.7455 11.1076 20.7511 11.1069C20.7455 11.1103 20.7409 11.1154 20.7352 11.1188C21.2412 11.0582 21.7281 10.9303 22.1914 10.7505C22.2971 10.7119 22.4031 10.6725 22.508 10.6286C22.0923 11.266 21.5697 11.8295 20.9661 12.2767C20.9752 12.4172 20.9752 12.5532 20.9752 12.6938C20.9752 16.9361 17.8533 21.8299 12.1439 21.8299C10.3902 21.8299 8.75891 21.3002 7.38605 20.3861C7.63074 20.4142 7.87548 20.433 8.12923 20.433C9.18903 20.433 10.1847 20.1568 11.0582 19.6745C11.0768 19.6642 11.096 19.6557 11.1146 19.6452C11.1704 19.6136 11.2237 19.5781 11.2783 19.5449C11.5199 19.4 11.7558 19.2428 11.9805 19.0643C11.977 19.0643 11.9734 19.0634 11.9697 19.0632C11.9732 19.0604 11.9772 19.0579 11.9807 19.0549C10.7968 19.0343 9.77243 18.323 9.26663 17.2932C9.19561 17.1456 9.13562 16.9904 9.08629 16.8293C9.27485 16.866 9.46771 16.8847 9.6651 16.8847C9.8715 16.8847 10.0689 16.8582 10.2627 16.819C10.3363 16.8067 10.4107 16.7971 10.4834 16.7812C10.4777 16.7801 10.4724 16.7774 10.4666 16.776C10.4726 16.7744 10.4793 16.7739 10.4852 16.7721C9.06233 16.4769 7.99301 15.1784 7.99301 13.6222V13.5847C8.32379 13.7724 8.68913 13.8994 9.07808 13.9532C9.18382 13.9702 9.29003 13.9839 9.39713 13.9908C9.39317 13.988 9.3896 13.9843 9.38541 13.9814C9.39119 13.9816 9.39668 13.983 9.40223 13.983C8.56859 13.4064 8.02031 12.4269 8.02031 11.3112C8.02031 10.8077 8.1396 10.3316 8.34135 9.90609C8.37522 9.83789 8.4053 9.76787 8.44421 9.70195C9.95164 11.6156 12.2004 12.8841 14.7413 13.0424C14.7714 13.0445 14.8008 13.0507 14.8311 13.0523C14.8308 13.0513 14.8308 13.0504 14.8306 13.0495Z" fill="white"/>
</svg>
