<svg width="30" height="30" viewBox="0 0 30 30" fill="none" xmlns="http://www.w3.org/2000/svg">
<path d="M20.9861 0H8.86229C4.33598 0 0.666687 3.79582 0.666687 8.47822V21.5218C0.666687 26.2042 4.33598 30 8.86229 30H20.986C25.5124 30 29.1816 26.2042 29.1816 21.5218V8.47822C29.1817 3.79582 25.5124 0 20.9861 0ZM3.57637 8.47822C3.57637 5.46293 5.94751 3.01002 8.86229 3.01002H20.986C23.9008 3.01002 26.272 5.46293 26.272 8.47822V21.5218C26.272 24.5371 23.9008 26.99 20.986 26.99H8.86229C5.94751 26.99 3.57637 24.5371 3.57637 21.5218V8.47822Z" fill="white"/>
<path d="M14.9241 22.7262C19.042 22.7262 22.3923 19.2605 22.3923 15.0006C22.3923 10.7408 19.042 7.2749 14.9241 7.2749C10.8062 7.2749 7.45599 10.7408 7.45599 15.0006C7.45599 19.2605 10.8062 22.7262 14.9241 22.7262ZM14.9241 9.68289C17.7586 9.68289 20.0645 12.0684 20.0645 15.0006C20.0645 17.9329 17.7586 20.3184 14.9241 20.3184C12.0897 20.3184 9.78375 17.9329 9.78375 15.0006C9.78375 12.0684 12.0896 9.68289 14.9241 9.68289Z" fill="white"/>
<path d="M22.6105 8.78052C23.5346 8.78052 24.2836 8.00544 24.2836 7.04932C24.2836 6.0932 23.5346 5.31812 22.6105 5.31812C21.6865 5.31812 20.9374 6.0932 20.9374 7.04932C20.9374 8.00544 21.6865 8.78052 22.6105 8.78052Z" fill="white"/>
</svg>
